<?xml version="1.0" encoding="UTF-8" standalone="no"?>
<!DOCTYPE svg PUBLIC "-//W3C//DTD SVG 20010904//EN"
              "http://www.w3.org/TR/2001/REC-SVG-20010904/DTD/svg10.dtd">

<svg xmlns="http://www.w3.org/2000/svg"
     width="8.88889in" height="6.66667in"
     viewBox="0 0 640 480">
  <path id="名前なし"
        fill="black" stroke="black" stroke-width="1"
        d="M 524.50,232.00
           C 591.00,272.00 546.50,328.50 505.00,342.00
             501.50,358.00 487.00,361.00 486.00,359.00
             485.00,357.00 494.00,353.00 491.00,348.00
             488.00,343.00 455.50,362.00 455.50,348.50
             457.00,344.00 484.50,346.00 484.00,340.00
             483.50,334.00 447.50,343.00 450.00,332.00
             452.00,325.00 483.50,339.50 483.50,334.00
             483.50,328.50 453.50,330.50 455.00,323.50
             456.00,318.50 485.25,327.75 488.50,330.00
             486.00,311.75 454.00,320.75 452.50,319.00
             449.25,317.00 492.00,301.50 496.00,330.50
             539.50,323.00 561.50,284.50 514.50,238.50
             500.50,255.50 465.50,250.00 467.00,238.00
             439.50,239.50 388.00,262.50 384.50,277.50
             384.00,292.00 401.50,329.00 401.00,336.00
             412.48,335.49 426.29,331.27 440.25,334.75
             440.25,341.25 408.50,337.00 407.50,343.50
             431.50,348.75 447.50,336.50 448.50,339.75
             449.00,343.75 434.00,353.00 402.50,349.50
             396.50,356.00 444.50,352.50 445.00,358.00
             445.50,363.50 397.00,360.00 396.00,354.00
             392.75,358.50 405.25,361.00 405.25,364.75
             401.75,368.75 389.00,364.50 386.00,352.50
             383.50,342.00 390.50,344.50 389.50,336.00
             388.50,327.50 368.50,288.50 371.50,272.50
             374.50,256.50 446.00,226.25 454.00,228.25
             445.50,207.75 424.00,167.50 367.50,186.50
             331.00,192.50 328.50,198.00 326.50,200.00
             335.00,233.75 364.75,292.25 267.00,334.00
             284.50,337.00 278.00,342.00 276.00,343.50
             274.00,345.00 267.00,337.50 264.00,339.50
             261.00,341.50 274.00,345.50 272.00,347.50
             270.00,349.50 260.00,341.50 258.50,344.00
             257.00,346.50 266.00,350.50 263.50,353.00
             261.00,355.50 243.50,334.00 225.50,335.50
             223.50,333.00 236.50,317.50 252.00,327.50
             272.50,322.00 308.50,289.50 311.50,268.00
             314.50,246.50 304.50,206.00 304.50,206.00
             304.50,206.00 283.50,208.00 276.00,214.00
             268.50,220.00 257.75,249.00 259.00,270.50
             257.00,287.50 234.00,310.50 222.00,314.50
             239.00,318.50 229.00,321.50 229.00,322.50
             229.00,323.50 218.50,314.50 216.50,317.00
             214.50,319.50 221.50,325.00 219.00,326.50
             216.50,328.00 210.00,314.50 206.50,318.50
             203.00,322.50 212.50,331.00 205.00,333.50
             199.50,325.00 205.00,317.50 186.50,314.50
             168.00,311.50 189.50,292.50 208.00,306.50
             223.50,303.00 242.50,279.50 240.50,259.00
             238.50,238.50 256.00,222.50 254.50,215.50
             253.00,208.50 143.50,186.50 126.00,126.00
             108.50,65.50 254.50,-25.00 326.50,23.50
             347.50,36.50 354.75,67.75 356.00,75.00
             356.00,85.00 315.25,127.50 289.25,135.75
             266.50,141.50 219.08,152.09 195.50,134.00
             114.00,59.50 265.50,-8.00 316.00,57.50
             342.00,106.00 225.00,149.00 204.00,107.50
             178.00,68.00 251.50,26.00 291.00,69.50
             307.00,104.50 232.50,123.50 222.50,93.50
             212.50,63.50 265.00,60.50 273.50,76.00
             278.50,85.25 245.75,99.00 238.50,86.50
             236.00,82.00 252.00,70.50 250.50,87.50
             265.00,87.50 268.50,73.00 247.00,72.00
             225.50,71.00 220.50,99.50 254.50,102.00
             275.00,101.00 304.00,57.50 247.00,60.00
             190.00,62.50 200.00,117.50 251.00,116.00
             302.00,114.50 347.50,41.50 246.50,43.50
             155.00,54.50 183.00,133.00 251.50,133.50
             344.50,114.00 376.50,31.00 263.00,24.50
             169.50,21.50 149.50,94.50 145.00,109.50
             140.50,124.50 179.50,151.00 222.50,172.00
             247.50,184.50 252.50,204.50 252.50,204.50
             252.50,204.50 343.00,177.50 358.50,174.00
             374.00,170.50 415.00,162.00 426.00,168.00
             437.00,174.00 456.50,190.00 462.00,217.00
             464.25,222.75 468.75,218.75 468.75,217.75
             467.75,212.75 467.75,204.00 468.00,204.00
             460.00,205.25 455.25,185.75 469.75,196.25
             481.75,184.25 520.50,181.75 527.00,195.50
             528.25,199.00 528.75,210.50 528.25,213.00
             527.75,215.50 534.25,221.25 538.50,222.00
             540.50,222.75 532.00,227.75 533.00,231.25
             533.00,232.75 526.50,230.50 525.75,229.75
             525.00,229.00 524.50,232.00 524.50,232.00 Z" />
</svg>
